# xmcd
#
# Track frame offsets:
#	185
#	23957
#	49062
#	63827
#	80487
#	94862
#	112087
#	127415
#	157285
#
# Disc length: 2350 seconds
#
# Revision: 1
# Processed by: cddbd v1.5.1PL0 Copyright (c) Steve Scherf et al.
# Submitted via: audiograbber 1.83.01
#
DISCID=80092c09
DTITLE=Little Milton - Friend Of Mine (The Glades Masters)
DYEAR=1993
DGENRE=Blues
TTITLE0=Friend Of Mine
TTITLE1=You're Gonna Make Me Cry
TTITLE2=Baby It Ain't No Way
TTITLE3=Missing My Love
TTITLE4=Don't Turn Away
TTITLE5=It's All Bad News
TTITLE6=Bring It On Back
TTITLE7=Sundown
TTITLE8=I'm In Love With My Best Friend's Wife
EXTD=1993 Rhino Inc \nDistributed by Collectables Records
EXTT0=
EXTT1=
EXTT2=
EXTT3=
EXTT4=
EXTT5=
EXTT6=
EXTT7=
EXTT8=
PLAYORDER=
